<?xml version="1.0" standalone="no"?>
<!DOCTYPE svg PUBLIC "-//W3C//DTD SVG 20010904//EN"
 "http://www.w3.org/TR/2001/REC-SVG-20010904/DTD/svg10.dtd">
<svg version="1.0" xmlns="http://www.w3.org/2000/svg"
 width="64.000000pt" height="64.000000pt" viewBox="0 0 64.000000 64.000000"
 preserveAspectRatio="xMidYMid meet">

<g transform="translate(0.000000,64.000000) scale(0.100000,-0.100000)"
fill="#000000" stroke="none">
<path d="M292 612 c-7 -5 -42 -35 -78 -68 -59 -52 -94 -102 -94 -134 0 -20 21
-9 30 16 25 66 80 111 80 66 0 -40 36 -56 138 -63 53 -3 110 -11 126 -18 28
-11 28 -11 22 16 -14 61 -68 155 -99 174 -32 19 -102 25 -125 11z m115 -38
c21 -13 79 -111 71 -119 -2 -2 -49 0 -106 3 -106 8 -121 15 -122 55 0 20 31
23 78 6 17 -6 39 -9 49 -7 15 3 14 6 -7 18 -14 7 -40 16 -58 19 -44 8 -45 23
-2 38 37 13 62 9 97 -13z"/>
<path d="M530 381 c0 -6 5 -13 10 -16 14 -9 50 -81 50 -99 0 -12 -7 -14 -29
-10 -43 9 -66 -9 -112 -87 -23 -38 -57 -83 -76 -98 l-35 -29 51 -11 c71 -15
135 -14 177 4 42 17 80 90 69 134 -3 14 -10 49 -14 77 -9 49 -26 91 -54 127
-15 18 -37 23 -37 8z m47 -168 c3 -7 -14 -32 -37 -57 -53 -57 -34 -72 22 -17
22 23 42 41 44 41 2 0 4 -15 4 -32 0 -72 -66 -110 -169 -98 l-45 5 31 35 c16
19 38 51 48 70 27 53 46 71 74 68 13 -2 26 -8 28 -15z"/>
<path d="M86 344 c-54 -56 -90 -135 -81 -181 8 -43 63 -103 94 -103 33 0 34 0
68 -21 38 -24 143 -24 151 0 4 11 -4 13 -35 8 -21 -4 -56 -2 -77 4 l-38 11 21
19 c34 32 31 61 -15 151 -19 38 -38 87 -42 110 l-7 42 -39 -40z m62 -114 c44
-91 48 -122 15 -134 -21 -8 -23 -6 -44 56 -10 29 -21 52 -26 50 -10 -4 -6 -48
9 -85 16 -42 3 -44 -37 -4 -50 50 -48 88 9 174 11 18 23 33 26 33 3 -1 24 -41
48 -90z"/>
</g>
</svg>
