<?xml version="1.0" standalone="no"?>
<!DOCTYPE svg PUBLIC "-//W3C//DTD SVG 20010904//EN"
 "http://www.w3.org/TR/2001/REC-SVG-20010904/DTD/svg10.dtd">
<svg version="1.0" xmlns="http://www.w3.org/2000/svg"
 width="64.000000pt" height="64.000000pt" viewBox="0 0 64.000000 64.000000"
 preserveAspectRatio="xMidYMid meet">

<g transform="translate(0.000000,64.000000) scale(0.100000,-0.100000)"
fill="#000000" stroke="none">
<path d="M93 584 c-24 -14 -43 -32 -43 -41 0 -14 4 -13 23 4 56 52 138 60 206
22 l41 -23 41 23 c68 39 164 27 210 -25 29 -33 49 -82 49 -119 0 -57 -25 -102
-100 -179 -97 -100 -88 -109 10 -11 93 92 116 139 106 211 -13 99 -88 164
-187 164 -35 0 -67 -7 -92 -20 l-37 -20 -37 20 c-55 29 -136 27 -190 -6z"/>
<path d="M16 501 c-4 -5 -9 -30 -12 -55 -11 -81 10 -115 171 -276 l145 -145
55 55 c30 30 55 59 55 64 0 6 -25 -14 -55 -44 l-55 -55 -130 130 c-144 143
-175 190 -168 258 3 23 8 50 12 60 8 18 -8 25 -18 8z"/>
<path d="M224 485 c-18 -28 -13 -69 13 -97 50 -56 100 36 52 96 -26 33 -44 33
-65 1z m51 -11 c21 -21 16 -78 -6 -82 -20 -4 -43 48 -34 77 8 25 18 26 40 5z"/>
<path d="M351 484 c-34 -44 -20 -114 23 -114 39 0 67 77 42 115 -21 32 -39 32
-65 -1z m54 -15 c9 -29 -14 -81 -34 -77 -22 4 -27 61 -6 82 22 21 32 20 40 -5z"/>
<path d="M118 395 c-15 -33 3 -72 37 -81 38 -9 55 2 55 36 0 60 -69 94 -92 45z
m66 -16 c8 -12 12 -28 9 -35 -8 -21 -41 -17 -53 7 -24 43 15 68 44 28z"/>
<path d="M450 400 c-24 -24 -27 -78 -5 -86 49 -19 98 33 77 81 -14 30 -44 33
-72 5z m56 -14 c8 -21 -14 -56 -36 -56 -28 0 -34 18 -16 45 18 28 44 33 52 11z"/>
<path d="M263 335 c-36 -15 -70 -72 -60 -99 4 -10 18 -16 34 -15 27 0 27 1 6
9 -29 12 -29 32 1 67 21 24 32 28 76 28 45 0 55 -4 76 -29 40 -45 29 -60 -46
-67 l-65 -6 73 -1 c84 -2 95 8 68 64 -27 57 -97 78 -163 49z"/>
</g>
</svg>
