<?xml version="1.0" standalone="no"?>
<!DOCTYPE svg PUBLIC "-//W3C//DTD SVG 20010904//EN"
 "http://www.w3.org/TR/2001/REC-SVG-20010904/DTD/svg10.dtd">
<svg version="1.0" xmlns="http://www.w3.org/2000/svg"
 width="64.000000pt" height="64.000000pt" viewBox="0 0 64.000000 64.000000"
 preserveAspectRatio="xMidYMid meet">

<g transform="translate(0.000000,64.000000) scale(0.100000,-0.100000)"
fill="#000000" stroke="none">
<path d="M257 610 c-47 -12 -109 -44 -126 -64 -12 -14 -10 -15 16 -10 21 4 33
1 43 -11 16 -19 12 -23 -49 -57 -39 -22 -39 -46 -1 -83 40 -39 54 -91 38 -141
-9 -28 -19 -40 -36 -42 -12 -2 -22 -8 -22 -13 0 -5 -13 -3 -29 5 -22 12 -32
27 -41 66 -16 65 -6 126 31 196 16 31 23 54 16 52 -6 -2 -25 -30 -42 -63 -24
-48 -29 -70 -28 -124 0 -38 8 -83 17 -106 10 -24 12 -35 5 -27 -7 6 -21 12
-31 12 -17 0 -19 -8 -16 -82 l3 -83 89 -3 c50 -2 92 1 95 7 4 6 27 4 61 -5 95
-25 200 3 273 74 72 69 107 173 88 259 -6 30 -6 52 0 57 5 6 9 31 9 56 0 25 5
51 12 58 19 19 -39 71 -79 72 -18 0 -33 -4 -33 -10 0 -24 -38 -30 -82 -11 -53
24 -131 33 -181 21z m169 -35 l39 -16 -39 -14 c-81 -28 -74 -64 23 -117 36
-20 39 -44 11 -90 -21 -35 -27 -93 -10 -103 6 -4 10 8 10 30 0 20 10 53 22 74
30 53 20 81 -42 115 -60 33 -62 54 -8 74 50 19 68 5 68 -54 0 -46 7 -54 53
-63 37 -8 50 -43 43 -115 -5 -48 -50 -156 -64 -156 -4 0 -14 15 -22 32 -8 18
-21 34 -29 36 -11 4 -10 -1 2 -19 10 -13 17 -38 17 -55 0 -29 -5 -35 -52 -58
-29 -14 -73 -29 -98 -32 -57 -8 -130 11 -152 39 l-18 22 0 -27 0 -28 -80 0
-80 0 0 66 0 65 22 -15 c28 -20 38 -20 38 0 0 14 2 14 22 0 29 -21 38 -20 38
2 1 14 5 12 25 -10 26 -30 43 -23 21 8 -12 16 -12 23 0 46 8 15 14 49 14 77 0
41 -6 57 -35 95 -19 26 -35 50 -35 54 0 4 20 18 45 30 50 24 59 51 24 75 -24
17 -18 23 45 43 50 17 128 12 182 -11z m147 8 c-7 -2 -21 -2 -30 0 -10 3 -4 5
12 5 17 0 24 -2 18 -5z m47 -33 c0 -6 -27 -10 -60 -10 -33 0 -60 4 -60 10 0 6
27 10 60 10 33 0 60 -4 60 -10z m-22 -72 c-3 -42 -4 -43 -40 -46 l-38 -3 0 45
0 46 41 0 40 0 -3 -42z"/>
<path d="M271 408 c-33 -35 -41 -75 -16 -84 17 -7 66 21 62 35 -1 5 7 16 18
25 16 12 18 18 9 33 -18 29 -40 26 -73 -9z m59 2 c0 -5 -4 -10 -10 -10 -5 0
-16 -13 -25 -30 -15 -29 -35 -40 -35 -20 0 18 43 70 57 70 7 0 13 -4 13 -10z"/>
<path d="M347 373 c-10 -9 -9 -50 2 -71 5 -9 12 -25 15 -34 6 -21 39 -24 55
-4 18 21 -7 92 -37 105 -27 13 -27 13 -35 4z m52 -58 c12 -35 8 -60 -9 -50 -5
3 -7 12 -4 19 3 7 -2 19 -11 26 -19 15 -20 51 -2 44 7 -2 19 -20 26 -39z"/>
<path d="M220 295 c-34 -41 48 -87 104 -58 14 7 26 20 26 27 0 17 -48 38 -70
31 -10 -3 -21 -1 -25 5 -9 14 -20 13 -35 -5z m30 -16 c0 -7 11 -9 28 -6 34 7
66 -8 40 -18 -30 -12 -83 -1 -86 18 -2 9 1 17 7 17 6 0 11 -5 11 -11z"/>
<path d="M30 120 c0 -6 28 -10 64 -10 36 0 68 5 71 10 4 6 -20 10 -64 10 -41
0 -71 -4 -71 -10z"/>
<path d="M35 80 c8 -13 122 -13 130 0 4 6 -20 10 -65 10 -45 0 -69 -4 -65 -10z"/>
</g>
</svg>
