<?xml version="1.0" standalone="no"?>
<!DOCTYPE svg PUBLIC "-//W3C//DTD SVG 20010904//EN"
 "http://www.w3.org/TR/2001/REC-SVG-20010904/DTD/svg10.dtd">
<svg version="1.0" xmlns="http://www.w3.org/2000/svg"
 width="64.000000pt" height="64.000000pt" viewBox="0 0 64.000000 64.000000"
 preserveAspectRatio="xMidYMid meet">

<g transform="translate(0.000000,64.000000) scale(0.100000,-0.100000)"
fill="#000000" stroke="none">
<path d="M90 582 c-97 -48 -115 -177 -41 -286 30 -43 174 -184 237 -232 l34
-26 38 28 c71 54 239 229 257 269 29 63 30 123 3 174 -27 53 -60 79 -110 87
-58 10 -106 -4 -149 -43 l-40 -36 -32 31 c-56 54 -131 67 -197 34z m128 -17
c20 -8 52 -32 69 -53 l33 -37 33 37 c31 37 89 68 124 68 32 0 98 -40 116 -69
24 -40 22 -115 -4 -169 -21 -43 -113 -141 -216 -229 l-53 -45 -32 27 c-87 72
-218 208 -237 248 -26 53 -28 128 -4 168 18 30 84 69 116 69 10 0 34 -7 55
-15z"/>
<path d="M520 531 c0 -6 5 -13 10 -16 6 -3 10 1 10 9 0 9 -4 16 -10 16 -5 0
-10 -4 -10 -9z"/>
<path d="M557 447 c5 -47 2 -60 -22 -101 -32 -54 -25 -75 11 -31 35 43 49 98
38 142 -15 60 -34 53 -27 -10z"/>
<path d="M277 444 c-4 -4 -7 -25 -7 -46 0 -38 0 -38 -40 -38 l-40 0 0 -50 0
-50 40 0 40 0 0 -40 0 -40 50 0 50 0 0 40 0 40 40 0 40 0 0 50 0 50 -39 0
c-40 0 -40 0 -43 43 -3 41 -4 42 -43 45 -23 2 -44 0 -48 -4z m63 -48 c0 -45
10 -56 51 -56 35 0 39 -3 39 -25 0 -22 -4 -25 -39 -25 -41 0 -51 -11 -51 -56
0 -17 -6 -24 -19 -24 -14 0 -20 10 -25 40 -6 39 -7 40 -46 40 -36 0 -40 3 -40
25 0 22 4 25 39 25 41 0 51 11 51 56 0 17 6 24 20 24 14 0 20 -7 20 -24z"/>
</g>
</svg>
